<!-- icon666.com - MILLIONS vector ICONS FREE --><svg version="1.1" id="Capa_1" xmlns="http://www.w3.org/2000/svg" xmlns:xlink="http://www.w3.org/1999/xlink" x="0px" y="0px" viewBox="0 0 59 59" style="enable-background:new 0 0 59 59;" xml:space="preserve"><g><path d="M53.522,30.892l3.185-3.185c0.391-0.391,0.391-1.023,0-1.414s-1.023-0.391-1.414,0l-2.927,2.927l-1.437-3.592 c-0.205-0.513-0.791-0.76-1.3-0.557c-0.513,0.206-0.763,0.787-0.558,1.3l1.638,4.094l-5.621,2.409 c-0.46-0.93-0.998-1.819-1.613-2.66c0.273-0.236,0.548-0.507,0.8-0.821c1.004-1.249,0.952-2.97-0.124-4.184 c-0.979-1.103-2.47-1.407-3.752-0.824C41.428,22.774,42,20.932,42,19c0-2.609-1.022-5.053-2.865-7H41c0.553,0,1-0.448,1-1 s-0.447-1-1-1h-2.954c-1.094-0.064-1.818-0.417-2.21-1.082c-1.142-1.932,0.382-6.059,1.065-7.486 c0.148-0.31,0.128-0.675-0.056-0.965C36.663,0.177,36.344,0,36,0H22c-0.371,0-0.711,0.205-0.884,0.533 c-0.174,0.328-0.151,0.725,0.058,1.031c3.214,4.711,0.353,7.688-0.522,8.437H18c-0.553,0-1,0.448-1,1s0.447,1,1,1h1.865 C18.022,13.947,17,16.391,17,19c0,1.052,0.177,2.082,0.506,3.072c-0.856-0.387-1.789-0.64-2.589-0.421 c-0.668,0.182-1.183,0.657-1.458,1.341c-0.157,0.306-0.512,1.174-0.201,2.345c0.355,1.335,1.437,2.571,3.211,3.684 C15.441,30.2,14.583,31.49,13.9,32.87l-5.609-2.404l1.638-4.094c0.205-0.513-0.045-1.095-0.558-1.3 c-0.508-0.203-1.095,0.044-1.3,0.557L6.635,29.22l-2.927-2.927c-0.391-0.391-1.023-0.391-1.414,0s-0.391,1.023,0,1.414l3.185,3.185 L2.4,33.2c-0.442,0.331-0.532,0.958-0.2,1.4C2.396,34.862,2.696,35,3.001,35C3.21,35,3.42,34.935,3.6,34.8l3.538-2.653l5.979,2.563 C12.396,36.694,12,38.811,12,41c0,9.925,7.851,18,17.5,18S47,50.925,47,41c0-2.162-0.387-4.292-1.116-6.291l5.978-2.562L55.4,34.8 c0.18,0.135,0.39,0.2,0.599,0.2c0.305,0,0.604-0.138,0.801-0.4c0.332-0.442,0.242-1.069-0.2-1.4L53.522,30.892z M34.494,2 c-0.756,2.009-1.758,5.602-0.382,7.934c0.013,0.022,0.03,0.044,0.044,0.066H23.289c1.17-1.665,2.218-4.409,0.455-8H34.494z M22.925,12h13.15C38.573,13.724,40,16.26,40,19c0,3.329-2.128,6.359-5.563,7.933c-0.016,0.003-0.033,0.007-0.049,0.01 c-0.358,0.068-0.703,0.118-1.043,0.156c-0.048,0.005-0.096,0.013-0.145,0.018c-0.373,0.037-0.74,0.057-1.102,0.057 c-0.002,0-0.003,0-0.005,0c-0.77,0-1.521-0.035-2.253-0.105c-2.195-0.209-4.217-0.73-6.036-1.557l-3.018-1.509 C19.617,22.514,19,20.788,19,19C19,16.26,20.427,13.724,22.925,12z M15.218,23.942c0.036-0.058,0.066-0.12,0.09-0.184 c0.058-0.156,0.103-0.168,0.135-0.177c0.58-0.163,2.205,0.717,3.294,1.606c0.058,0.046,0.12,0.087,0.186,0.12l0.774,0.387l0.001,0 l3.226,1.613c0.011,0.005,0.021,0.01,0.032,0.015c2.691,1.229,5.767,1.852,9.139,1.852c0.002,0,0.003,0,0.005,0 c0.436,0,0.875-0.028,1.314-0.07c0.077-0.008,0.156-0.019,0.233-0.028c0.4-0.045,0.8-0.107,1.201-0.186 c0.03-0.006,0.059-0.008,0.089-0.014c0.012-0.002,0.023-0.008,0.034-0.011c2.041-0.42,4.079-1.267,6.01-2.529l-0.547-0.837 l0.635,0.782c0.648-0.403,1.245-0.132,1.587,0.254c0.343,0.387,0.539,1.012,0.063,1.605c-0.403,0.502-0.903,0.864-1.266,1.089 c-0.045,0.028-0.091,0.057-0.131,0.081c-0.01,0.006-0.017,0.009-0.027,0.015c-0.183,0.105-0.309,0.165-0.327,0.173 c-0.045,0.02-0.088,0.043-0.13,0.069l-0.147,0.091c-0.743,0.454-1.531,0.818-2.335,1.14c-0.596,0.24-1.205,0.439-1.824,0.606 c-0.235,0.063-0.47,0.131-0.708,0.183c-0.276,0.061-0.556,0.109-0.836,0.156c-0.271,0.045-0.543,0.083-0.816,0.115 c-0.276,0.032-0.552,0.064-0.831,0.082c-2.396,0.157-4.848-0.184-7.164-1.067c-0.413-0.158-0.821-0.314-1.222-0.469 c-0.053-0.02-0.106-0.041-0.159-0.061c-0.363-0.14-0.717-0.278-1.064-0.413c-0.09-0.035-0.181-0.07-0.269-0.105 c-0.316-0.123-0.623-0.243-0.92-0.361c-0.109-0.043-0.217-0.085-0.324-0.127c-0.271-0.107-0.534-0.211-0.786-0.31 c-0.114-0.045-0.223-0.088-0.332-0.132c-0.235-0.093-0.465-0.185-0.677-0.269c-0.105-0.042-0.201-0.08-0.3-0.12 c-0.152-0.061-0.3-0.12-0.437-0.175c-0.107-0.043-0.208-0.084-0.305-0.122c-0.149-0.06-0.291-0.117-0.413-0.166 c-0.036-0.014-0.075-0.03-0.109-0.044c-0.133-0.054-0.237-0.096-0.332-0.134c-0.114-0.046-0.203-0.082-0.251-0.102 C14.366,25.648,15.195,23.986,15.218,23.942z M34.086,42.481c1.165-2.85,0.842-6.304,0.39-8.632 c0.011-0.001,0.021-0.002,0.032-0.004c0.092-0.011,0.184-0.019,0.276-0.031c0.39-0.053,0.778-0.118,1.163-0.196 c0.04-0.008,0.08-0.019,0.12-0.028c0.339-0.071,0.675-0.151,1.009-0.241c0.116-0.031,0.231-0.067,0.347-0.101 c0.193-0.056,0.387-0.11,0.579-0.172v9.55C38,42.833,37.833,43,37.627,43h-3.205c-0.17,0-0.263-0.1-0.303-0.16 C34.077,42.778,34.018,42.648,34.086,42.481z M29.5,57C20.953,57,14,49.822,14,41c0-4.169,1.526-8.072,4.313-11.063 c0.74,0.298,1.906,0.764,3.294,1.31c0.104,0.041,0.208,0.082,0.315,0.124c0.153,0.06,0.305,0.12,0.463,0.182 c0.267,0.104,0.54,0.211,0.818,0.319c0.075,0.029,0.152,0.059,0.228,0.088c0.241,0.094,0.485,0.188,0.732,0.283 c0.104,0.04,0.208,0.08,0.314,0.121c0.325,0.125,0.652,0.251,0.984,0.377c0.491,0.188,0.99,0.346,1.491,0.492 c0.1,0.029,0.199,0.058,0.299,0.086c0.49,0.133,0.982,0.248,1.477,0.341c0.082,0.015,0.165,0.027,0.247,0.042 c0.473,0.082,0.948,0.148,1.424,0.194c0.055,0.005,0.11,0.013,0.165,0.018c0.507,0.045,1.014,0.065,1.521,0.069 c0.049,0,0.097,0.007,0.146,0.007c0.07,0,0.14-0.006,0.21-0.007c0.006,0,0.013,0,0.019,0c0.385,1.885,0.813,5.204-0.225,7.741 c-0.302,0.738-0.218,1.572,0.225,2.23C32.897,44.609,33.632,45,34.422,45h3.205C38.936,45,40,43.936,40,42.627v-10.34 c0.137-0.064,0.272-0.134,0.408-0.201c0.107-0.053,0.216-0.103,0.322-0.159c0.344-0.18,0.684-0.369,1.017-0.572l0.072-0.045 C43.875,34.09,45,37.498,45,41C45,49.822,38.047,57,29.5,57z"></path><circle cx="26" cy="16" r="2"></circle><circle cx="33" cy="16" r="2"></circle><circle cx="29.5" cy="36.5" r="1.5"></circle><circle cx="29.5" cy="42.5" r="1.5"></circle><circle cx="29.5" cy="48.5" r="1.5"></circle><path d="M25.624,23.783c0.168,0.108,0.355,0.159,0.541,0.159c0.328,0,0.65-0.162,0.842-0.458c0.299-0.464,0.165-1.083-0.299-1.382 c-0.36-0.231-0.696-0.503-1-0.808c-0.391-0.392-1.024-0.391-1.415-0.001c-0.391,0.39-0.391,1.023-0.001,1.414 C24.697,23.112,25.146,23.474,25.624,23.783z"></path><path d="M27.642,23.737c-0.104,0.542,0.252,1.066,0.794,1.17c0.499,0.096,1.009,0.145,1.515,0.145c0.504,0,1.011-0.048,1.506-0.142 c0.542-0.104,0.898-0.627,0.795-1.169c-0.104-0.542-0.62-0.897-1.17-0.795c-0.745,0.142-1.52,0.142-2.269-0.001 C28.274,22.842,27.746,23.195,27.642,23.737z"></path><path d="M34.191,21.293c-0.304,0.304-0.64,0.576-1,0.808c-0.464,0.299-0.598,0.918-0.299,1.382 c0.191,0.297,0.513,0.458,0.842,0.458c0.186,0,0.373-0.051,0.541-0.159c0.479-0.309,0.927-0.671,1.332-1.076 c0.39-0.391,0.39-1.024-0.001-1.414C35.216,20.903,34.582,20.902,34.191,21.293z"></path></g></svg>